# xmcd
#
# Track frame offsets: 
#        150
#        41755
#        94267
#        134102
#        165550
#        190290
#        229245
#        241330
#
# Disc length: 3832 seconds
#
# Revision: 3
# Processed by: cddbd v1.5.2PL0 Copyright (c) Steve Scherf et al.
# Submitted via: ExactAudioCopy v1.0b1
#
DISCID=6f0ef608
DTITLE=Chick Corea Akoustic Band - Alive
DYEAR=1991
DGENRE=Jazz
TTITLE0=On Green Dolphin Street
TTITLE1=How Deep Is The Ocean
TTITLE2=Humpty Dumpty
TTITLE3=Sophisticated Lady
TTITLE4=U.M.M.G.
TTITLE5='Round Midnight
TTITLE6=Hackensack
TTITLE7=Morning Sprite
EXTD=YEAR: 1991
EXTT0=
EXTT1=
EXTT2=
EXTT3=
EXTT4=
EXTT5=
EXTT6=
EXTT7=
PLAYORDER=
